<?xml version="1.0" encoding="UTF-8" standalone="no"?>
<!-- Created with Inkscape (http://www.inkscape.org/) -->
<svg
   xmlns:dc="http://purl.org/dc/elements/1.1/"
   xmlns:cc="http://creativecommons.org/ns#"
   xmlns:rdf="http://www.w3.org/1999/02/22-rdf-syntax-ns#"
   xmlns:svg="http://www.w3.org/2000/svg"
   xmlns="http://www.w3.org/2000/svg"
   xmlns:xlink="http://www.w3.org/1999/xlink"
   xmlns:sodipodi="http://sodipodi.sourceforge.net/DTD/sodipodi-0.dtd"
   xmlns:inkscape="http://www.inkscape.org/namespaces/inkscape"
   width="744.09448819"
   height="1052.3622047"
   id="svg2"
   sodipodi:version="0.32"
   inkscape:version="0.46"
   sodipodi:docname="glue-tube.svg"
   inkscape:output_extension="org.inkscape.output.svg.inkscape">
  <defs
     id="defs4">
    <inkscape:perspective
       sodipodi:type="inkscape:persp3d"
       inkscape:vp_x="0 : 526.18109 : 1"
       inkscape:vp_y="0 : 1000 : 0"
       inkscape:vp_z="744.09448 : 526.18109 : 1"
       inkscape:persp3d-origin="372.04724 : 350.78739 : 1"
       id="perspective10" />
    <inkscape:perspective
       id="perspective2714"
       inkscape:persp3d-origin="372.04724 : 350.78739 : 1"
       inkscape:vp_z="744.09448 : 526.18109 : 1"
       inkscape:vp_y="0 : 1000 : 0"
       inkscape:vp_x="0 : 526.18109 : 1"
       sodipodi:type="inkscape:persp3d" />
  </defs>
  <sodipodi:namedview
     id="base"
     pagecolor="#ffffff"
     bordercolor="#666666"
     borderopacity="1.0"
     gridtolerance="10000"
     guidetolerance="10"
     objecttolerance="10"
     inkscape:pageopacity="0.0"
     inkscape:pageshadow="2"
     inkscape:zoom="1.4"
     inkscape:cx="403.20044"
     inkscape:cy="753.8508"
     inkscape:document-units="px"
     inkscape:current-layer="layer1"
     showgrid="false"
     inkscape:window-width="1344"
     inkscape:window-height="853"
     inkscape:window-x="216"
     inkscape:window-y="94" />
  <metadata
     id="metadata7">
    <rdf:RDF>
      <cc:Work
         rdf:about="">
        <dc:format>image/svg+xml</dc:format>
        <dc:type
           rdf:resource="http://purl.org/dc/dcmitype/StillImage" />
      </cc:Work>
    </rdf:RDF>
  </metadata>
  <g
     inkscape:label="Layer 1"
     inkscape:groupmode="layer"
     id="layer1">
    <image
       y="111.93365"
       x="1.4285774"
       id="image2716"
       height="208"
       width="310"
       sodipodi:absref="C:\Users\Gertjan\Desktop\_glue_plastic_object_262340_l1.jpg"
       xlink:href="C:\Users\Gertjan\Desktop\_glue_plastic_object_262340_l1.jpg" />
    <g
       id="g2390">
      <path
         style="fill:#916f6f"
         d="M 253.60714,451.13927 C 250.84895,449.53278 251.49539,447.45757 256.85031,440.72794 C 261.25315,435.19482 261.65916,434.29995 260.28438,433.15898 C 258.03111,431.28894 255.85714,426.71116 255.85714,423.83646 C 255.85714,421.33714 263.16019,412.06846 273.10714,401.94359 C 275.71964,399.28436 277.85714,396.28016 277.85714,395.26759 C 277.85714,393.1986 282.4896,388.80721 288.41093,385.26303 C 295.56189,380.98287 297.75698,378.37702 297.18429,374.84797 C 295.87552,366.78298 310.23494,363.96351 320.45367,370.27903 C 329.60908,375.93738 337.00814,388.52147 337.22577,398.80445 L 337.35714,405.01186 L 339.85714,403.58339 C 341.23214,402.79772 344.38214,401.02287 346.85714,399.63926 C 352.12118,396.69648 357.46732,391.78849 359.37713,388.14536 C 360.11928,386.72966 361.15096,382.45466 361.66976,378.64536 C 362.45085,372.91023 362.30365,370.7162 360.81367,365.88495 C 359.82402,362.67601 358.23171,359.18575 357.27519,358.12882 C 353.74968,354.23317 357.25081,354.89251 367.3467,360.02551 C 380.76495,366.84767 391.88794,374.96372 394.05902,379.51653 C 396.47323,384.57918 397.22205,389.66902 395.91261,392.11572 C 394.41042,394.9226 388.78485,397.1607 381.39534,397.89134 C 367.28797,399.28621 374.77853,401.81993 390.65151,401.0223 C 403.53638,400.37482 409.83994,396.99904 424.5824,382.8511 C 427.45629,380.0931 430.01485,378.04375 430.26809,378.29698 C 430.98407,379.01297 401.17885,409.05248 397.56797,411.25415 C 392.26174,414.48952 383.48305,413.90524 368.10281,409.29304 C 360.60316,407.04406 354.01591,405.60598 352.68343,405.92679 C 351.40397,406.23483 349.00714,407.7263 347.35714,409.24116 C 345.70714,410.75603 343.00714,412.71582 341.35714,413.59625 C 339.70714,414.47668 336.40319,416.66456 334.01503,418.4582 C 330.15211,421.35948 328.77265,421.77455 321.51503,422.21937 C 314.20521,422.66739 313.35327,422.92741 313.31993,424.72057 C 313.29946,425.82123 312.939,427.2779 312.5189,427.95763 C 311.02051,430.38208 302.40607,435.59127 295.43891,438.28596 C 291.54394,439.79242 282.50714,443.53122 275.35714,446.59439 C 262.50207,452.10169 257.17181,453.21551 253.60714,451.13927 z M 324.85714,392.47608 C 324.85714,388.6599 320.54695,381.98771 317.17033,380.57687 C 312.15397,378.4809 311.31595,379.87727 315.0839,384.05339 C 316.90312,386.06968 319.43476,389.40967 320.70977,391.4756 C 322.9997,395.18604 324.85714,395.63411 324.85714,392.47608 z M 305.83086,362.17028 C 303.95795,358.6707 303.4638,346.99589 305.09729,344.83871 C 308.17721,340.77138 326.81662,342.02147 336.54597,346.9479 C 342.43721,349.9309 342.54513,351.68035 336.77779,350.70596 C 332.52723,349.98784 324.83456,352.88473 318.62168,357.54317 C 316.82618,358.88944 313.46092,360.94317 311.14332,362.10701 L 306.9295,364.2231 L 305.83086,362.17028 z M 389.0181,351.21813 C 373.90415,341.63409 353.23558,334.79228 335.61941,333.54185 C 330.80016,333.19977 326.85714,332.51653 326.85714,332.02354 C 326.85714,330.51077 368.20348,312.10639 371.18317,312.29282 C 371.82885,312.33322 368.08214,314.47072 362.85714,317.04282 C 357.63214,319.61492 353.35714,322.16937 353.35714,322.71937 C 353.35714,323.26937 357.12014,324.25311 361.71937,324.90545 C 366.31859,325.55779 370.81859,326.38271 371.71937,326.7386 C 372.62014,327.0945 375.38214,327.75333 377.85714,328.20268 C 383.8171,329.28474 394.66178,333.41589 403.57359,337.99905 L 410.79003,341.71032 L 414.07359,339.93328 C 420.25493,336.58798 448.85714,315.07276 448.85714,313.76832 C 448.85714,312.27014 440.1933,308.29345 435.68667,307.72311 C 434.01432,307.51146 431.90603,306.7 431.00158,305.91986 C 428.01797,303.34632 424.66807,303.1731 421.05582,305.40559 C 417.17016,307.80707 403.24751,308.99836 393.41884,307.77035 C 386.31776,306.88312 386.5727,305.50695 394.43135,302.3048 C 399.49947,300.23971 402.02159,299.88826 411.85714,299.87656 C 424.19352,299.86189 426.84682,300.38025 442.53153,305.86923 C 452.27633,309.27949 456.85714,312.01153 456.85714,314.41316 C 456.85714,316.39795 449.72415,322.38017 426.38484,339.96937 C 410.26272,352.11948 402.73603,357.20767 400.92638,357.17978 C 399.5133,357.15801 394.15457,354.47527 389.0181,351.21813 z M 404.52381,329.5527 C 402.83053,327.85943 403.93818,326.20161 406.35714,326.80873 C 407.89754,327.19534 408.85714,327.01074 408.85714,326.32778 C 408.85714,325.71815 408.40714,325.21937 407.85714,325.21937 C 407.30714,325.21937 406.85714,324.76937 406.85714,324.21937 C 406.85714,323.66937 407.53214,323.21937 408.35714,323.21937 C 409.18214,323.21937 409.85714,322.37046 409.85714,321.33291 C 409.85714,319.85424 408.85012,319.29545 405.19851,318.74785 C 396.00588,317.36933 393.55041,315.36964 398.60714,313.37997 C 401.98685,312.05016 410.61616,314.03739 411.97046,316.45738 C 412.45874,317.32989 414.7705,318.34115 417.10769,318.70462 C 423.72887,319.73431 424.85714,320.22673 424.85714,322.08676 C 424.85714,325.36291 423.04872,326.00828 418.2736,324.43625 C 413.41461,322.83661 411.83635,323.28447 413.83708,325.6952 C 414.84718,326.9123 414.85122,327.52157 413.85714,328.71937 C 412.6131,330.21835 405.79795,330.82685 404.52381,329.5527 z M 388.21877,323.71937 C 387.90218,322.89437 386.74123,322.21937 385.63886,322.21937 C 383.91248,322.21937 383.72051,321.76123 384.25438,318.91541 C 384.79683,316.02393 384.55715,315.49335 382.3345,314.66541 C 379.79692,313.72016 379.79803,313.71803 383.65898,312.11495 C 386.7553,310.82934 388.20217,310.72998 390.94015,311.61495 C 395.23466,313.003 395.29353,314.34959 391.10714,315.43439 C 389.31964,315.89758 387.86403,316.60119 387.87245,316.99796 C 387.931,319.75619 390.9233,320.81981 399.60714,321.16909 C 400.29464,321.19674 400.85714,322.11937 400.85714,323.21937 C 400.85714,324.9983 400.19047,325.21937 394.82576,325.21937 C 390.38701,325.21937 388.64238,324.82328 388.21877,323.71937 z M 372.85714,319.1711 C 372.85714,317.91691 378.98442,315.18 380.16238,315.90802 C 380.61615,316.18847 380.21337,317.27325 379.2673,318.31865 C 377.44523,320.33201 372.85714,320.94215 372.85714,319.1711 z"
         id="path3010" />
      <path
         style="fill:#d40000"
         d="M 269.02311,439.13188 C 276.07458,430.48685 276.0606,430.88332 269.28622,431.66957 C 264.06819,432.27519 262.96373,432.09106 260.58343,430.21871 C 258.54327,428.61392 257.85714,427.19379 257.85714,424.57594 C 257.85714,421.71707 258.99947,419.76571 264.10714,413.89958 C 267.54464,409.95162 272.26964,404.86668 274.60714,402.59971 C 276.94464,400.33274 278.85714,397.8449 278.85714,397.07117 C 278.85714,396.29744 279.55212,394.67216 280.40154,393.45944 C 282.46669,390.51103 301.20615,378.21937 303.63606,378.21937 C 306.16684,378.21937 312.99636,383.22428 316.2038,387.42944 C 322.19384,395.28279 324.17755,403.28558 321.35714,408.21937 C 319.3036,411.81166 319.52196,412.91843 322.42818,413.64784 C 326.66772,414.7119 324.59883,416.66404 318.28281,417.55928 C 315.02369,418.02124 310.67676,419.09887 308.62296,419.95402 C 305.34682,421.31813 304.91751,421.88815 305.12296,424.60108 C 305.33268,427.37044 304.71031,428.12827 299.16224,431.85913 C 295.57206,434.27339 291.15722,436.31976 288.66224,436.7261 C 286.29443,437.11173 281.35671,438.73048 277.68952,440.32331 C 274.02233,441.91614 269.82202,443.21937 268.35549,443.21937 L 265.68908,443.21937 L 269.02311,439.13188 z M 283.85714,408.21937 C 283.85714,407.66937 283.43369,407.21937 282.91615,407.21937 C 282.39861,407.21937 281.69705,407.66937 281.35714,408.21937 C 281.01722,408.76937 281.44066,409.21937 282.29812,409.21937 C 283.15558,409.21937 283.85714,408.76937 283.85714,408.21937 z M 367.35714,405.19605 C 350.13857,401.86861 348.93179,401.39623 352.52003,399.38815 C 353.60409,398.78148 355.25752,398.89679 357.27003,399.71941 C 358.96794,400.41343 363.84464,401.79212 368.10714,402.78317 C 378.98624,405.31258 378.36147,407.3226 367.35714,405.19605 z M 391.85714,351.13847 C 378.89337,342.49434 365.60693,337.18436 346.60982,333.05519 C 340.69927,331.77049 335.86197,330.4541 335.86026,330.12989 C 335.84452,327.15329 355.63578,325.93908 364.25825,328.38764 C 366.51264,329.02783 369.33778,329.44884 370.53635,329.32321 C 371.73491,329.19758 374.04036,329.77988 375.65956,330.6172 C 377.27877,331.45452 378.8874,331.85578 379.2343,331.50888 C 379.5812,331.16198 380.95494,331.90207 382.28706,333.15353 C 383.63349,334.41844 385.22839,335.10796 385.87847,334.70619 C 387.05608,333.97839 391.30347,335.72677 393.58955,337.88035 C 394.26737,338.51889 395.67909,338.81719 396.72669,338.54323 C 397.77429,338.26928 398.93377,338.53434 399.3033,339.13225 C 399.67283,339.73017 400.78793,340.21937 401.7813,340.21937 C 402.77467,340.21937 404.66276,341.06523 405.97706,342.09906 C 409.56867,344.92422 412.55252,343.46291 432.9245,328.90187 C 450.59517,316.27163 452.50939,314.27162 449.65714,311.41937 C 447.92918,309.69141 450.01513,309.9413 452.63463,311.77607 C 453.85701,312.63226 454.85714,313.94489 454.85714,314.69303 C 454.85714,316.33072 409.81257,351.50533 403.17288,355.05247 C 400.12643,356.67998 400.21249,356.70975 391.85714,351.13847 z M 371.85714,334.43861 C 371.85714,332.99434 365.5258,331.15071 364.40724,332.26927 C 363.69606,332.98045 363.83895,333.59669 364.8655,334.2457 C 366.67102,335.38718 371.85714,335.53028 371.85714,334.43861 z"
         id="path3008" />
      <path
         style="fill:#aa0000"
         d="M 267.00328,441.46937 C 267.80415,440.50687 269.9565,437.95061 271.78627,435.78879 C 275.0273,431.95963 275.05823,431.8379 272.98513,431.07102 C 270.03158,429.97843 270.32653,427.58164 273.60714,426.01655 C 275.53546,425.0966 276.45683,423.81042 276.6908,421.71198 C 276.87431,420.06605 277.75855,417.90205 278.65576,416.9031 C 280.02884,415.37433 280.45089,415.30931 281.32209,416.49234 C 281.89137,417.26537 283.48214,418.13733 284.85714,418.43002 C 286.23214,418.7227 288.06143,419.26126 288.92223,419.62681 C 289.89309,420.03909 291.50673,419.34669 293.17223,417.80315 C 295.65373,415.50338 295.85714,414.70965 295.85714,407.32614 C 295.85714,402.93233 296.21897,399.11378 296.66121,398.84046 C 297.75617,398.16373 305.84972,409.28272 305.85384,411.46937 C 305.85565,412.43187 306.32948,413.21937 306.9068,413.21937 C 308.71019,413.21937 313.27354,410.52172 315.34831,408.22913 C 316.44086,407.02187 318.19565,405.57339 319.24784,405.01027 C 321.03612,404.05321 321.12054,404.28103 320.54189,408.50274 C 319.96266,412.72863 320.08607,413.06001 322.46104,413.65609 C 326.67098,414.71272 324.57917,416.66683 318.28281,417.55928 C 315.02369,418.02124 310.67676,419.09887 308.62296,419.95402 C 305.34682,421.31813 304.91751,421.88815 305.12296,424.60108 C 305.33268,427.37044 304.71031,428.12827 299.16224,431.85913 C 295.57206,434.27339 291.15722,436.31976 288.66224,436.7261 C 286.29443,437.11173 281.35671,438.73048 277.68952,440.32331 C 274.02233,441.91614 269.79009,443.21937 268.28454,443.21937 C 265.78947,443.21937 265.67605,443.06447 267.00328,441.46937 z M 259.45215,429.05156 C 257.68885,426.5341 257.28509,421.21937 258.85714,421.21937 C 259.40714,421.21937 259.85714,422.04963 259.85714,423.06438 C 259.85714,425.44621 262.67783,427.94431 265.85714,428.37819 C 269.63251,428.89342 268.8535,430.67799 264.70215,431.02407 C 261.82663,431.26379 260.70702,430.84314 259.45215,429.05156 z M 263.87719,415.6952 C 264.57291,414.85691 265.34807,414.37697 265.59977,414.62867 C 266.29327,415.32217 264.88423,417.21937 263.67567,417.21937 C 263.01258,417.21937 263.08844,416.64559 263.87719,415.6952 z M 270.85714,408.3374 C 270.85714,407.7874 271.30714,407.05929 271.85714,406.71937 C 272.40714,406.37945 272.85714,406.55134 272.85714,407.10134 C 272.85714,407.65134 272.40714,408.37945 271.85714,408.71937 C 271.30714,409.05929 270.85714,408.8874 270.85714,408.3374 z M 367.35714,405.19605 C 350.13857,401.86861 348.93179,401.39623 352.52003,399.38815 C 353.60409,398.78148 355.25752,398.89679 357.27003,399.71941 C 358.96794,400.41343 363.84464,401.79212 368.10714,402.78317 C 378.98624,405.31258 378.36147,407.3226 367.35714,405.19605 z M 279.55899,396.58789 C 278.62579,395.65469 280.61261,392.42061 282.85702,391.21943 C 284.19409,390.50385 285.3709,390.49648 286.5841,391.19608 C 287.55927,391.75841 289.63121,392.67147 291.18842,393.22509 C 294.22486,394.30461 294.34145,396.49644 291.39283,397.06801 C 290.40362,397.25976 288.50064,396.83135 287.16399,396.116 C 285.25381,395.0937 284.32181,395.07259 282.80899,396.01736 C 280.58601,397.40564 280.40799,397.43689 279.55899,396.58789 z M 451.42857,312.64794 C 450.36958,311.87359 449.72814,311.01503 450.00314,310.74004 C 450.27814,310.46504 451.36958,310.87359 452.42857,311.64794 C 453.48755,312.42229 454.129,313.28085 453.854,313.55585 C 453.579,313.83085 452.48755,313.42229 451.42857,312.64794 z"
         id="path3006" />
    </g>
    <g
       id="g2403"
       transform="matrix(0.9511306,0.3087889,-0.3087889,0.9511306,284.61961,-283.91451)">
      <path
         style="fill:#916f6f"
         d="M 253.60714,451.13927 C 250.84895,449.53278 251.49539,447.45757 256.85031,440.72794 C 261.25315,435.19482 261.65916,434.29995 260.28438,433.15898 C 258.03111,431.28894 255.85714,426.71116 255.85714,423.83646 C 255.85714,421.33714 263.16019,412.06846 273.10714,401.94359 C 275.71964,399.28436 277.85714,396.28016 277.85714,395.26759 C 277.85714,393.1986 282.4896,388.80721 288.41093,385.26303 C 295.56189,380.98287 297.75698,378.37702 297.18429,374.84797 C 295.87552,366.78298 310.23494,363.96351 320.45367,370.27903 C 329.60908,375.93738 337.00814,388.52147 337.22577,398.80445 L 337.35714,405.01186 L 339.85714,403.58339 C 341.23214,402.79772 344.38214,401.02287 346.85714,399.63926 C 352.12118,396.69648 357.46732,391.78849 359.37713,388.14536 C 360.11928,386.72966 361.15096,382.45466 361.66976,378.64536 C 362.45085,372.91023 362.30365,370.7162 360.81367,365.88495 C 359.82402,362.67601 358.23171,359.18575 357.27519,358.12882 C 353.74968,354.23317 357.25081,354.89251 367.3467,360.02551 C 380.76495,366.84767 391.88794,374.96372 394.05902,379.51653 C 396.47323,384.57918 397.22205,389.66902 395.91261,392.11572 C 394.41042,394.9226 388.78485,397.1607 381.39534,397.89134 C 367.28797,399.28621 374.77853,401.81993 390.65151,401.0223 C 403.53638,400.37482 409.83994,396.99904 424.5824,382.8511 C 427.45629,380.0931 430.01485,378.04375 430.26809,378.29698 C 430.98407,379.01297 401.17885,409.05248 397.56797,411.25415 C 392.26174,414.48952 383.48305,413.90524 368.10281,409.29304 C 360.60316,407.04406 354.01591,405.60598 352.68343,405.92679 C 351.40397,406.23483 349.00714,407.7263 347.35714,409.24116 C 345.70714,410.75603 343.00714,412.71582 341.35714,413.59625 C 339.70714,414.47668 336.40319,416.66456 334.01503,418.4582 C 330.15211,421.35948 328.77265,421.77455 321.51503,422.21937 C 314.20521,422.66739 313.35327,422.92741 313.31993,424.72057 C 313.29946,425.82123 312.939,427.2779 312.5189,427.95763 C 311.02051,430.38208 302.40607,435.59127 295.43891,438.28596 C 291.54394,439.79242 282.50714,443.53122 275.35714,446.59439 C 262.50207,452.10169 257.17181,453.21551 253.60714,451.13927 z M 324.85714,392.47608 C 324.85714,388.6599 320.54695,381.98771 317.17033,380.57687 C 312.15397,378.4809 311.31595,379.87727 315.0839,384.05339 C 316.90312,386.06968 319.43476,389.40967 320.70977,391.4756 C 322.9997,395.18604 324.85714,395.63411 324.85714,392.47608 z M 305.83086,362.17028 C 303.95795,358.6707 303.4638,346.99589 305.09729,344.83871 C 308.17721,340.77138 326.81662,342.02147 336.54597,346.9479 C 342.43721,349.9309 342.54513,351.68035 336.77779,350.70596 C 332.52723,349.98784 324.83456,352.88473 318.62168,357.54317 C 316.82618,358.88944 313.46092,360.94317 311.14332,362.10701 L 306.9295,364.2231 L 305.83086,362.17028 z M 389.0181,351.21813 C 373.90415,341.63409 353.23558,334.79228 335.61941,333.54185 C 330.80016,333.19977 326.85714,332.51653 326.85714,332.02354 C 326.85714,330.51077 368.20348,312.10639 371.18317,312.29282 C 371.82885,312.33322 368.08214,314.47072 362.85714,317.04282 C 357.63214,319.61492 353.35714,322.16937 353.35714,322.71937 C 353.35714,323.26937 357.12014,324.25311 361.71937,324.90545 C 366.31859,325.55779 370.81859,326.38271 371.71937,326.7386 C 372.62014,327.0945 375.38214,327.75333 377.85714,328.20268 C 383.8171,329.28474 394.66178,333.41589 403.57359,337.99905 L 410.79003,341.71032 L 414.07359,339.93328 C 420.25493,336.58798 448.85714,315.07276 448.85714,313.76832 C 448.85714,312.27014 440.1933,308.29345 435.68667,307.72311 C 434.01432,307.51146 431.90603,306.7 431.00158,305.91986 C 428.01797,303.34632 424.66807,303.1731 421.05582,305.40559 C 417.17016,307.80707 403.24751,308.99836 393.41884,307.77035 C 386.31776,306.88312 386.5727,305.50695 394.43135,302.3048 C 399.49947,300.23971 402.02159,299.88826 411.85714,299.87656 C 424.19352,299.86189 426.84682,300.38025 442.53153,305.86923 C 452.27633,309.27949 456.85714,312.01153 456.85714,314.41316 C 456.85714,316.39795 449.72415,322.38017 426.38484,339.96937 C 410.26272,352.11948 402.73603,357.20767 400.92638,357.17978 C 399.5133,357.15801 394.15457,354.47527 389.0181,351.21813 z M 404.52381,329.5527 C 402.83053,327.85943 403.93818,326.20161 406.35714,326.80873 C 407.89754,327.19534 408.85714,327.01074 408.85714,326.32778 C 408.85714,325.71815 408.40714,325.21937 407.85714,325.21937 C 407.30714,325.21937 406.85714,324.76937 406.85714,324.21937 C 406.85714,323.66937 407.53214,323.21937 408.35714,323.21937 C 409.18214,323.21937 409.85714,322.37046 409.85714,321.33291 C 409.85714,319.85424 408.85012,319.29545 405.19851,318.74785 C 396.00588,317.36933 393.55041,315.36964 398.60714,313.37997 C 401.98685,312.05016 410.61616,314.03739 411.97046,316.45738 C 412.45874,317.32989 414.7705,318.34115 417.10769,318.70462 C 423.72887,319.73431 424.85714,320.22673 424.85714,322.08676 C 424.85714,325.36291 423.04872,326.00828 418.2736,324.43625 C 413.41461,322.83661 411.83635,323.28447 413.83708,325.6952 C 414.84718,326.9123 414.85122,327.52157 413.85714,328.71937 C 412.6131,330.21835 405.79795,330.82685 404.52381,329.5527 z M 388.21877,323.71937 C 387.90218,322.89437 386.74123,322.21937 385.63886,322.21937 C 383.91248,322.21937 383.72051,321.76123 384.25438,318.91541 C 384.79683,316.02393 384.55715,315.49335 382.3345,314.66541 C 379.79692,313.72016 379.79803,313.71803 383.65898,312.11495 C 386.7553,310.82934 388.20217,310.72998 390.94015,311.61495 C 395.23466,313.003 395.29353,314.34959 391.10714,315.43439 C 389.31964,315.89758 387.86403,316.60119 387.87245,316.99796 C 387.931,319.75619 390.9233,320.81981 399.60714,321.16909 C 400.29464,321.19674 400.85714,322.11937 400.85714,323.21937 C 400.85714,324.9983 400.19047,325.21937 394.82576,325.21937 C 390.38701,325.21937 388.64238,324.82328 388.21877,323.71937 z M 372.85714,319.1711 C 372.85714,317.91691 378.98442,315.18 380.16238,315.90802 C 380.61615,316.18847 380.21337,317.27325 379.2673,318.31865 C 377.44523,320.33201 372.85714,320.94215 372.85714,319.1711 z"
         id="path2405" />
      <path
         style="fill:#d40000"
         d="M 269.02311,439.13188 C 276.07458,430.48685 276.0606,430.88332 269.28622,431.66957 C 264.06819,432.27519 262.96373,432.09106 260.58343,430.21871 C 258.54327,428.61392 257.85714,427.19379 257.85714,424.57594 C 257.85714,421.71707 258.99947,419.76571 264.10714,413.89958 C 267.54464,409.95162 272.26964,404.86668 274.60714,402.59971 C 276.94464,400.33274 278.85714,397.8449 278.85714,397.07117 C 278.85714,396.29744 279.55212,394.67216 280.40154,393.45944 C 282.46669,390.51103 301.20615,378.21937 303.63606,378.21937 C 306.16684,378.21937 312.99636,383.22428 316.2038,387.42944 C 322.19384,395.28279 324.17755,403.28558 321.35714,408.21937 C 319.3036,411.81166 319.52196,412.91843 322.42818,413.64784 C 326.66772,414.7119 324.59883,416.66404 318.28281,417.55928 C 315.02369,418.02124 310.67676,419.09887 308.62296,419.95402 C 305.34682,421.31813 304.91751,421.88815 305.12296,424.60108 C 305.33268,427.37044 304.71031,428.12827 299.16224,431.85913 C 295.57206,434.27339 291.15722,436.31976 288.66224,436.7261 C 286.29443,437.11173 281.35671,438.73048 277.68952,440.32331 C 274.02233,441.91614 269.82202,443.21937 268.35549,443.21937 L 265.68908,443.21937 L 269.02311,439.13188 z M 283.85714,408.21937 C 283.85714,407.66937 283.43369,407.21937 282.91615,407.21937 C 282.39861,407.21937 281.69705,407.66937 281.35714,408.21937 C 281.01722,408.76937 281.44066,409.21937 282.29812,409.21937 C 283.15558,409.21937 283.85714,408.76937 283.85714,408.21937 z M 367.35714,405.19605 C 350.13857,401.86861 348.93179,401.39623 352.52003,399.38815 C 353.60409,398.78148 355.25752,398.89679 357.27003,399.71941 C 358.96794,400.41343 363.84464,401.79212 368.10714,402.78317 C 378.98624,405.31258 378.36147,407.3226 367.35714,405.19605 z M 391.85714,351.13847 C 378.89337,342.49434 365.60693,337.18436 346.60982,333.05519 C 340.69927,331.77049 335.86197,330.4541 335.86026,330.12989 C 335.84452,327.15329 355.63578,325.93908 364.25825,328.38764 C 366.51264,329.02783 369.33778,329.44884 370.53635,329.32321 C 371.73491,329.19758 374.04036,329.77988 375.65956,330.6172 C 377.27877,331.45452 378.8874,331.85578 379.2343,331.50888 C 379.5812,331.16198 380.95494,331.90207 382.28706,333.15353 C 383.63349,334.41844 385.22839,335.10796 385.87847,334.70619 C 387.05608,333.97839 391.30347,335.72677 393.58955,337.88035 C 394.26737,338.51889 395.67909,338.81719 396.72669,338.54323 C 397.77429,338.26928 398.93377,338.53434 399.3033,339.13225 C 399.67283,339.73017 400.78793,340.21937 401.7813,340.21937 C 402.77467,340.21937 404.66276,341.06523 405.97706,342.09906 C 409.56867,344.92422 412.55252,343.46291 432.9245,328.90187 C 450.59517,316.27163 452.50939,314.27162 449.65714,311.41937 C 447.92918,309.69141 450.01513,309.9413 452.63463,311.77607 C 453.85701,312.63226 454.85714,313.94489 454.85714,314.69303 C 454.85714,316.33072 409.81257,351.50533 403.17288,355.05247 C 400.12643,356.67998 400.21249,356.70975 391.85714,351.13847 z M 371.85714,334.43861 C 371.85714,332.99434 365.5258,331.15071 364.40724,332.26927 C 363.69606,332.98045 363.83895,333.59669 364.8655,334.2457 C 366.67102,335.38718 371.85714,335.53028 371.85714,334.43861 z"
         id="path2407" />
      <path
         style="fill:#aa0000"
         d="M 267.00328,441.46937 C 267.80415,440.50687 269.9565,437.95061 271.78627,435.78879 C 275.0273,431.95963 275.05823,431.8379 272.98513,431.07102 C 270.03158,429.97843 270.32653,427.58164 273.60714,426.01655 C 275.53546,425.0966 276.45683,423.81042 276.6908,421.71198 C 276.87431,420.06605 277.75855,417.90205 278.65576,416.9031 C 280.02884,415.37433 280.45089,415.30931 281.32209,416.49234 C 281.89137,417.26537 283.48214,418.13733 284.85714,418.43002 C 286.23214,418.7227 288.06143,419.26126 288.92223,419.62681 C 289.89309,420.03909 291.50673,419.34669 293.17223,417.80315 C 295.65373,415.50338 295.85714,414.70965 295.85714,407.32614 C 295.85714,402.93233 296.21897,399.11378 296.66121,398.84046 C 297.75617,398.16373 305.84972,409.28272 305.85384,411.46937 C 305.85565,412.43187 306.32948,413.21937 306.9068,413.21937 C 308.71019,413.21937 313.27354,410.52172 315.34831,408.22913 C 316.44086,407.02187 318.19565,405.57339 319.24784,405.01027 C 321.03612,404.05321 321.12054,404.28103 320.54189,408.50274 C 319.96266,412.72863 320.08607,413.06001 322.46104,413.65609 C 326.67098,414.71272 324.57917,416.66683 318.28281,417.55928 C 315.02369,418.02124 310.67676,419.09887 308.62296,419.95402 C 305.34682,421.31813 304.91751,421.88815 305.12296,424.60108 C 305.33268,427.37044 304.71031,428.12827 299.16224,431.85913 C 295.57206,434.27339 291.15722,436.31976 288.66224,436.7261 C 286.29443,437.11173 281.35671,438.73048 277.68952,440.32331 C 274.02233,441.91614 269.79009,443.21937 268.28454,443.21937 C 265.78947,443.21937 265.67605,443.06447 267.00328,441.46937 z M 259.45215,429.05156 C 257.68885,426.5341 257.28509,421.21937 258.85714,421.21937 C 259.40714,421.21937 259.85714,422.04963 259.85714,423.06438 C 259.85714,425.44621 262.67783,427.94431 265.85714,428.37819 C 269.63251,428.89342 268.8535,430.67799 264.70215,431.02407 C 261.82663,431.26379 260.70702,430.84314 259.45215,429.05156 z M 263.87719,415.6952 C 264.57291,414.85691 265.34807,414.37697 265.59977,414.62867 C 266.29327,415.32217 264.88423,417.21937 263.67567,417.21937 C 263.01258,417.21937 263.08844,416.64559 263.87719,415.6952 z M 270.85714,408.3374 C 270.85714,407.7874 271.30714,407.05929 271.85714,406.71937 C 272.40714,406.37945 272.85714,406.55134 272.85714,407.10134 C 272.85714,407.65134 272.40714,408.37945 271.85714,408.71937 C 271.30714,409.05929 270.85714,408.8874 270.85714,408.3374 z M 367.35714,405.19605 C 350.13857,401.86861 348.93179,401.39623 352.52003,399.38815 C 353.60409,398.78148 355.25752,398.89679 357.27003,399.71941 C 358.96794,400.41343 363.84464,401.79212 368.10714,402.78317 C 378.98624,405.31258 378.36147,407.3226 367.35714,405.19605 z M 279.55899,396.58789 C 278.62579,395.65469 280.61261,392.42061 282.85702,391.21943 C 284.19409,390.50385 285.3709,390.49648 286.5841,391.19608 C 287.55927,391.75841 289.63121,392.67147 291.18842,393.22509 C 294.22486,394.30461 294.34145,396.49644 291.39283,397.06801 C 290.40362,397.25976 288.50064,396.83135 287.16399,396.116 C 285.25381,395.0937 284.32181,395.07259 282.80899,396.01736 C 280.58601,397.40564 280.40799,397.43689 279.55899,396.58789 z M 451.42857,312.64794 C 450.36958,311.87359 449.72814,311.01503 450.00314,310.74004 C 450.27814,310.46504 451.36958,310.87359 452.42857,311.64794 C 453.48755,312.42229 454.129,313.28085 453.854,313.55585 C 453.579,313.83085 452.48755,313.42229 451.42857,312.64794 z"
         id="path2409" />
    </g>
  </g>
</svg>
